<svg width="52" height="51" viewBox="0 0 52 51" fill="none" xmlns="http://www.w3.org/2000/svg">
<path d="M43.9 0.64808C39.4336 0.0983099 34.9166 0.0983092 30.4502 0.648079L22.3516 1.64494V16.8932C22.3516 25.929 29.8466 31.5113 37.1751 32.9968C45.6695 31.0986 51.9986 25.929 51.9986 16.8932V1.64494L43.9 0.64808Z" fill="#E5D4A3"/>
<path fill-rule="evenodd" clip-rule="evenodd" d="M24 36C24.5523 36 25 36.4477 25 37V44H32C32.5523 44 33 44.4477 33 45C33 45.5523 32.5523 46 32 46H16C15.4477 46 15 45.5523 15 45C15 44.4477 15.4477 44 16 44H23V37C23 36.4477 23.4477 36 24 36Z" fill="#6C4327"/>
<path fill-rule="evenodd" clip-rule="evenodd" d="M3 15C3 11.134 6.13401 8 10 8H38C41.866 8 45 11.134 45 15V31C45 34.866 41.866 38 38 38H10C6.13401 38 3 34.866 3 31V15ZM10 10C7.23858 10 5 12.2386 5 15V31C5 33.7614 7.23858 36 10 36H38C40.7614 36 43 33.7614 43 31V15C43 12.2386 40.7614 10 38 10H10Z" fill="#6C4327"/>
</svg>
