<?xml version="1.0" encoding="utf-8"?>
<!-- Generator: Adobe Illustrator 23.0.2, SVG Export Plug-In . SVG Version: 6.00 Build 0)  -->
<svg version="1.1" id="Layer_1" xmlns="http://www.w3.org/2000/svg" xmlns:xlink="http://www.w3.org/1999/xlink" x="0px" y="0px"
	 viewBox="0 0 52 51" style="enable-background:new 0 0 52 51;" xml:space="preserve">
<style type="text/css">
	.st0{fill:#E5D4A3;}
	.st1{fill:#6C4327;}
</style>
<path class="st0" d="M42.6,0.5C39,0,35.4,0,31.8,0.5l-9.4,1.2v15.2c0,9,7.5,14.6,14.8,16.1C45.7,31.1,52,25.9,52,16.9V1.6L42.6,0.5z
	"/>
<g>
	<path class="st1" d="M42.6,38.7h-2.4c0.6-0.5,1-1.2,1.2-2.1c0.2-0.6,0.1-1.2,0-1.9c-0.1-0.7-0.2-1.5,0-2.4v0c0.2-0.7,0-1.3-0.4-1.7
		c-0.5-0.4-1.3-0.5-2.4-0.1c-0.3,0.1-0.7,0.3-0.9,0.6c-0.7-0.2-1.4-0.3-2.1-0.3c-1.3,0.1-2.5,0.9-3.2,2c-0.8-0.5-1.7-0.9-2.7-1.2
		c-0.3-0.1-0.6,0.1-0.7,0.4c0,0,0,0,0,0c-0.1,0.3,0.1,0.6,0.4,0.7c1,0.3,1.8,0.6,2.5,1.1c0,0,0,0.1-0.1,0.1
		c-0.2,0.6-0.3,1.2-0.2,1.7c0.1,1.1,0.6,2.2,1.3,2.9h-5.7v-1.8H29c0.3,0,0.6-0.3,0.6-0.6c0-0.3-0.3-0.6-0.6-0.6h-6.7v-2.2
		c0.1,0,0.1-0.1,0.2-0.1c1.1-0.7,2.7-1,4.4-1l0,0c0.3,0,0.6-0.3,0.6-0.6c0-0.3-0.3-0.6-0.6-0.6c-0.7,0-1.3,0-1.9,0.1v-3.1
		c0.5-0.4,1-0.9,1.4-1.5c0.6-1,0.6-1.5,0.6-2.5c0-0.2,0-0.3,0-0.5c0,0,0,0,0,0c0,0,0,0,0,0v-1.4c0-1.7-1.4-3.1-3.1-3.1h-0.2
		c0.9-0.9,1.4-2,1.4-3.1V15c0-1.5-0.5-2.8-1.4-3.7c-0.8-0.8-1.9-1.3-3.1-1.3c0,0,0,0,0,0c-1.2,0-2.3,0.5-3.1,1.3
		c-0.9,0.9-1.4,2.2-1.4,3.7v1.2c0,1,0.6,2.2,1.4,3.1h-0.2c-1.5,0-2.3,0.9-2.7,1.6l-3.4,5.5c-0.4-0.7-1.3-2.2-2.5-2.3
		c-0.3,0-0.7,0-1,0.3c-0.3,0.3-0.2,0.7-0.2,1l0.8,4.7c0.1,0.4,0.1,0.7,0.4,1c0.3,0.2,0.6,0.2,1,0.2c0.1,0,0.2,0,0.3,0
		c1.6-0.1,2.8,0.3,3.3,0.5c0.5,0.2,0.9,0.5,1.3,0.7v3.1l-0.1,0h-4.7c-0.7,0-0.7,0-0.8-0.2c-0.1-0.2-1.2-2.4-2.6-2.5
		c-0.3,0-0.7,0-1,0.3c-0.3,0.3-0.2,0.7-0.2,1l0.8,4.6H4.8c-0.5,0-1,0.4-1,1v4.6c0,0.5,0.4,1,1,1h1.5v1.1c0,1.2,1,2.2,2.2,2.2h30.4
		c1.2,0,2.2-1,2.2-2.2v-1.1h1.5c0.5,0,1-0.4,1-1v-4.6C43.5,39.1,43.1,38.7,42.6,38.7L42.6,38.7z M38.5,35.2c-0.5-1-0.6-2-0.3-2.7
		c0.2-0.4,0.5-0.8,0.9-0.9c0.5-0.2,0.8-0.2,1-0.2c0.1,0,0.2,0,0.3,0c0,0,0.1,0.2,0,0.5v0c-0.3,1.2-0.2,2.1-0.1,2.8
		c0.1,0.5,0.1,1,0,1.5c-0.3,1.4-1.1,2.1-3,2.3l0,0C38.9,37.2,38.8,36,38.5,35.2z M32.9,35.7c0-0.4,0-0.8,0.1-1.3
		c0.4-1.1,1.4-2.3,2.8-2.4c0.4,0,0.8,0,1.2,0.1c-0.4,1-0.3,2.3,0.3,3.6c0.6,1.2-1.6,2.5-2.3,2.9C33.9,38.2,33.1,37.1,32.9,35.7
		L32.9,35.7z M26.3,36.9v1.8h-5.1c-0.5,0-0.8-0.4-0.8-0.9c0-0.5,0.4-0.9,0.9-0.9H26.3z M23.8,31.6c-0.7,0.2-1.4,0.5-1.9,0.8
		c0,0,0,0,0,0c-0.1-0.1-0.1-0.2-0.2-0.3c-0.1-0.1-0.2-0.3-0.4-0.4c-0.3-0.4-0.7-0.8-1.2-1.2l3.2-1.3c0.2-0.1,0.3-0.1,0.5-0.2
		L23.8,31.6L23.8,31.6z M18.8,29.8c-0.2,0.1-0.4,0.1-0.6,0c-0.2-0.1-0.3-0.2-0.4-0.4c-0.1-0.2-0.1-0.4,0-0.6
		c0.1-0.2,0.2-0.3,0.4-0.4c0,0,0,0,0,0l2.9-1.3l0.7,1.4L18.8,29.8z M20.7,11.2c1.4,0,3,1,3.3,3.1c-1.3-0.2-3.9-0.8-4.2-0.8l0,0
		c-0.2,0-0.3-0.1-0.5-0.1c-0.6,0-0.9,0.3-1.3,0.5c-0.2,0.1-0.4,0.3-0.6,0.4C17.7,12.2,19.3,11.3,20.7,11.2L20.7,11.2z M17.4,16.2
		v-0.7c0.6-0.1,1-0.4,1.4-0.6c0.4-0.3,0.5-0.3,0.8-0.3v0c0.2,0.1,3.2,0.7,4.5,0.9v0.7c0,1-1,2.5-2.3,3.1c0,0,0,0-0.1,0
		c-0.1,0-0.1,0.1-0.2,0.1c-0.3,0.1-0.5,0.2-0.8,0.2c-0.2,0-0.5-0.1-0.8-0.2c-0.1,0-0.1-0.1-0.2-0.1c0,0,0,0-0.1,0
		C18.4,18.7,17.4,17.3,17.4,16.2L17.4,16.2z M22.1,20.5v0.2c0,0.8-0.6,1.5-1.3,1.5c-0.7,0-1.3-0.7-1.3-1.5v-0.2c0.1,0,0.1,0,0.2,0.1
		c0.4,0.2,0.8,0.2,1.2,0.2c0.4,0,0.7-0.1,1.2-0.2C22,20.5,22,20.5,22.1,20.5L22.1,20.5z M15.8,21.5c0.5-0.8,1-1.1,1.7-1.1h0.7v0.2
		c0,1.5,1.1,2.7,2.5,2.7c1.4,0,2.5-1.2,2.5-2.7v-0.2H24c1.1,0,1.9,0.9,1.9,1.9v1.4c0,0.2,0,0.3,0,0.5c0,0.9-0.1,1.2-0.5,1.9
		c-0.5,0.8-1.2,1.4-2.4,1.9l-0.7-1.4c0.3-0.1,0.5-0.3,0.7-0.6c0,0,0.1-0.1,0.1-0.1l0.7-1.2c0.2-0.3,0.1-0.6-0.2-0.8
		c-0.3-0.2-0.6-0.1-0.8,0.2c0,0,0,0,0,0l-0.7,1.1c-0.2,0.2-0.3,0.3-0.7,0.4l-3.7,1.6c-0.3,0.1-0.6,0.3-0.8,0.6
		c-0.5-0.3-1.1-0.5-1.7-0.7l1.2-1.9c0.2-0.3,0.1-0.6-0.2-0.8c-0.3-0.2-0.6-0.1-0.8,0.2l-1.4,2.3c-0.6-0.1-1.1-0.1-1.7-0.2L15.8,21.5
		z M12,30c-0.6-0.1-1.2-0.1-1.8,0c-0.1,0-0.3,0-0.4,0C9.8,30,9,25.4,9,25.4c0.5,0.2,1.2,1.1,1.5,1.9c0.2,0.5,0.4,0.7,0.8,0.7
		c0.4,0,0.6,0,0.7,0c0.2,0,0.3,0,0.5,0L12,30z M16.1,33.3c0.9,0.9,1.3,1.7,1.4,2c-0.2,0.1-0.6,0.1-1.4,0.2V33.3z M11.2,36.7h3.7
		c2.3,0,3-0.1,3.5-0.6c0.1-0.2,0.3-0.4,0.3-0.8c-0.1-1.1-1.6-3.3-4.5-4.7c-0.2-0.1-0.5-0.2-1-0.4l0.6-2.1c1.1,0.1,2.1,0.4,3,0.9
		c0,0.2,0,0.5,0.1,0.7c0.2,0.5,0.5,0.8,1,1c0.2,0.1,0.5,0.2,0.7,0.2c0.1,0,0.2,0,0.4,0c0.5,0.4,1.2,1,1.5,1.5
		c0.1,0.2,0.2,0.3,0.3,0.4c0.1,0.2,0.2,0.3,0.4,0.4v2.4c-1.1,0.1-1.9,1-1.9,2.1c0,0.3,0.1,0.6,0.2,0.9h-8.2L11.2,36.7z M8.3,35.8
		c0.4,0.8,1.1,0.9,1.7,0.9v2H7.7L6.9,34C7.3,34.2,8,35.1,8.3,35.8L8.3,35.8z M42.4,44H25c-0.3,0-0.6,0.3-0.6,0.6s0.3,0.6,0.6,0.6
		h14.9v1.1c0,0.6-0.5,1.1-1.1,1.1H8.4c-0.6,0-1.1-0.5-1.1-1.1v-1.1h15.1c0.3,0,0.6-0.3,0.6-0.6S22.8,44,22.5,44H5v-4.1h2.2l0,0
		l35.2,0V44z"/>
</g>
</svg>
