<svg width="48" height="48" viewBox="0 0 48 48" fill="none" xmlns="http://www.w3.org/2000/svg">
<g clip-path="url(#clip0_21_72614)">
<path d="M39.9019 3.65199C35.4355 3.10222 30.9186 3.10222 26.4522 3.65199L18.3535 4.64885V19.8971C18.3535 28.9329 25.8486 34.5152 33.177 36.0007C41.6714 34.1025 48.0006 28.9329 48.0006 19.8971V4.64885L39.9019 3.65199Z" fill="#E5D4A3"/>
<path d="M10.4736 20.3457H12.583V18.2275H14.7012V16.1182H12.583V14H10.4736V16.1182H8.35547V18.2275H10.4736V20.3457Z" fill="#6C4327"/>
<path d="M6.23633 24.5918H8.34571V26.7012H6.23633V24.5918Z" fill="#6C4327"/>
<path d="M4.11914 20.3555H6.22852V22.4648H4.11914V20.3555Z" fill="#6C4327"/>
<path d="M32.7683 29.852C34.4967 26.2992 33.8882 21.887 30.9415 18.9403C27.2268 15.2256 21.1826 15.2256 17.4679 18.9404L4.78601 31.6221C1.07133 35.3368 1.07133 41.3811 4.78601 45.0958C8.5007 48.8104 14.545 48.8105 18.2597 45.0958L20.2291 43.1263C21.8801 45.9673 24.9569 47.8818 28.4726 47.8818C33.726 47.8818 38 43.6078 38 38.3544C38.0001 34.6456 35.8695 31.4252 32.7683 29.852ZM35.8154 37.2998H21.13C21.6437 33.7074 24.7404 30.9365 28.4727 30.9365C32.205 30.9365 35.3018 33.7073 35.8154 37.2998ZM18.9593 20.4319C21.8516 17.5396 26.5577 17.5396 29.4499 20.4319C31.7951 22.777 32.2368 26.3138 30.779 29.11C30.0402 28.9257 29.2677 28.8272 28.4727 28.8272C25.1431 28.8272 22.2076 30.5443 20.5037 33.1392L13.3779 26.0134L18.9593 20.4319ZM16.7682 43.6043C13.8759 46.4965 9.16986 46.4965 6.27763 43.6043L6.27756 43.6042C3.38532 40.712 3.38532 36.0059 6.27756 33.1137L11.8863 27.505L19.5084 35.1272C19.1443 36.1355 18.9453 37.2222 18.9453 38.3545C18.9453 39.2871 19.0806 40.1885 19.3315 41.0409L16.7682 43.6043ZM28.4727 45.7725C24.7404 45.7725 21.6437 43.0017 21.13 39.4092H35.8154C35.3018 43.0017 32.205 45.7725 28.4727 45.7725Z" fill="#6C4327"/>
</g>
<defs>
<clipPath id="clip0_21_72614">
<rect width="48" height="48" fill="white"/>
</clipPath>
</defs>
</svg>
