<svg width="48" height="48" viewBox="0 0 48 48" fill="none" xmlns="http://www.w3.org/2000/svg">
<path d="M37.9019 1.65199C33.4355 1.10222 28.9186 1.10222 24.4522 1.65199L16.3535 2.64885V17.8971C16.3535 26.9329 23.8486 32.5152 31.177 34.0007C39.6714 32.1025 46.0006 26.9329 46.0006 17.8971V2.64885L37.9019 1.65199Z" fill="#E5D4A3"/>
<path d="M28.036 36.9376L20.6427 26.3783V17.7344H21.9188V15.625H10.08V17.7344H11.3561V26.3783L3.96288 36.9376C1.28583 40.6837 4.07433 46.0384 8.68028 45.9994H23.3186C27.9261 46.0379 30.7123 40.6829 28.036 36.9376ZM13.4655 27.0434V17.7344H18.5333V27.0434L21.9107 31.8671H10.0882L13.4655 27.0434ZM23.3186 43.89H8.68028C5.76051 43.9144 3.9948 40.5208 5.69083 38.1475L8.61123 33.9765H23.3875L26.3079 38.1475C28.0045 40.5214 26.2374 43.9147 23.3186 43.89Z" fill="#6C4327"/>
<path d="M12.4844 10H14.5938V12.1094H12.4844V10Z" fill="#6C4327"/>
<path d="M17.4062 11.4062H19.5157V13.5156H17.4062V11.4062Z" fill="#6C4327"/>
<path d="M10.7246 39.1094H12.8341V41.2188H10.7246V39.1094Z" fill="#6C4327"/>
<path d="M19.1641 36.0859H21.2736V38.1953H19.1641V36.0859Z" fill="#6C4327"/>
</svg>
