<svg width="48" height="48" viewBox="0 0 48 48" fill="none" xmlns="http://www.w3.org/2000/svg">
<g clip-path="url(#clip0_21_72636)">
<path d="M39.9019 1.65199C35.4355 1.10222 30.9186 1.10222 26.4522 1.65199L18.3535 2.64885V17.8971C18.3535 26.9329 25.8486 32.5152 33.177 34.0007C41.6714 32.1025 48.0006 26.9329 48.0006 17.8971V2.64885L39.9019 1.65199Z" fill="#E5D4A3"/>
<path d="M4.51712 39.9904L3.78354 39.0489C-1.78108 31.9066 -1.14241 21.6856 5.26925 15.274C8.66899 11.8743 13.1891 10.002 17.9971 10.002C22.8051 10.002 27.3252 11.8743 30.725 15.274C32.4476 16.9967 33.7803 19.0062 34.6862 21.247L35.133 22.3524L24.9044 25.0931L24.504 24.3757C24.1702 23.7775 23.7526 23.2259 23.2629 22.7361C20.3594 19.8326 15.6347 19.833 12.7312 22.7361C10.3219 25.1454 9.85155 28.8716 11.5875 31.7975L12.0055 32.5021L4.51712 39.9904ZM17.9971 12.1185C13.9278 12.1185 9.85858 13.6675 6.76067 16.7654C1.3856 22.1404 0.605335 30.5468 4.74596 36.7788L9.38162 32.1431C7.63247 28.5148 8.34558 24.1389 11.2398 21.2446C14.9658 17.5186 21.0284 17.5186 24.7544 21.2446C25.1841 21.6743 25.5707 22.1416 25.9093 22.6402L32.24 20.944C31.4768 19.4024 30.4688 18.0007 29.2336 16.7654C26.1356 13.6675 22.0664 12.1185 17.9971 12.1185Z" fill="#6C4327"/>
<path d="M33.3224 37.5238L24.6504 31.4515L24.9467 30.6819C25.2829 29.8085 25.4499 28.8888 25.4433 27.9483L25.4375 27.1331L35.673 24.3906L35.8335 25.5782C36.3443 29.3583 35.6698 33.1259 33.8828 36.474L33.3224 37.5238ZM27.1808 30.6485L32.5457 34.4051C33.5658 32.0941 34.0135 29.5927 33.8605 27.0598L27.5233 28.7579C27.473 29.3995 27.3585 30.0314 27.1808 30.6485Z" fill="#6C4327"/>
<path d="M17.9804 45.9983C14.0985 45.9984 10.2045 44.7508 6.94943 42.2147L6.00781 41.4812L13.4963 33.9927L14.2008 34.4107C15.3766 35.1082 16.6887 35.4511 17.9944 35.4513C19.7157 35.4513 21.4262 34.8556 22.8014 33.6913L23.4219 33.166L32.1047 39.2458L31.2948 40.1323C31.1097 40.3348 30.9178 40.5356 30.7242 40.7292C27.2347 44.2186 22.6162 45.9981 17.9804 45.9983ZM9.21955 41.2523C15.3205 45.3059 23.5059 44.6428 28.8905 39.57L23.5139 35.8053C20.6856 37.8095 16.9787 38.1209 13.8553 36.6165L9.21955 41.2523Z" fill="#6C4327"/>
</g>
<defs>
<clipPath id="clip0_21_72636">
<rect width="48" height="48" fill="white"/>
</clipPath>
</defs>
</svg>
