<svg width="48" height="48" viewBox="0 0 48 48" fill="none" xmlns="http://www.w3.org/2000/svg">
<g clip-path="url(#clip0_21_72621)">
<path d="M39.9019 1.65199C35.4355 1.10222 30.9186 1.10222 26.4522 1.65199L18.3535 2.64885V17.8971C18.3535 26.9329 25.8486 32.5152 33.177 34.0007C41.6714 32.1025 48.0006 26.9329 48.0006 17.8971V2.64885L39.9019 1.65199Z" fill="#E5D4A3"/>
<path d="M23.2734 10H0V20.8594C0 28.057 4.41612 34.6711 11.2802 37.4168L11.6719 37.5735L12.0636 37.4168C12.8021 37.1214 13.5155 36.7793 14.2007 36.3936C16.0606 40.6723 19.5491 44.0712 23.9363 45.8262L24.3281 45.9828L24.7198 45.8262C31.4943 43.1163 36 36.592 36 29.297V18.5078H23.2734V10ZM11.6722 35.2955C5.93515 32.8173 2.10938 27.0696 2.10938 20.8595V12.1094H21.1641V20.8594C21.1641 27.1845 17.4529 32.8049 11.6722 35.2955ZM33.8906 20.6172V29.2969C33.8906 35.5893 30.1515 41.1993 24.3284 43.7049C20.5356 42.0692 17.5482 39.0249 15.9993 35.233C20.3851 32.0135 23.2734 26.7647 23.2734 20.8595V20.6173H33.8906V20.6172Z" fill="#6C4327"/>
<path d="M16.9453 24.8359H6.39844V25.8906C6.39844 28.7984 8.7641 31.1641 11.6719 31.1641C14.5796 31.1641 16.9453 28.7984 16.9453 25.8906V24.8359ZM11.6719 29.0547C10.2968 29.0547 9.12382 28.173 8.68852 26.9446H14.6552C14.2199 28.173 13.047 29.0547 11.6719 29.0547Z" fill="#6C4327"/>
<path d="M7.45312 18.5078C8.03468 18.5078 8.50781 18.9809 8.50781 19.5625H10.6172C10.6172 17.8178 9.19779 16.3984 7.45312 16.3984C5.70846 16.3984 4.28906 17.8178 4.28906 19.5625H6.39844C6.39844 18.9809 6.87157 18.5078 7.45312 18.5078Z" fill="#6C4327"/>
<path d="M15.8906 18.5078C16.4722 18.5078 16.9453 18.9809 16.9453 19.5625H19.0547C19.0547 17.8178 17.6353 16.3984 15.8906 16.3984C14.146 16.3984 12.7266 17.8178 12.7266 19.5625H14.8359C14.8359 18.9809 15.3091 18.5078 15.8906 18.5078Z" fill="#6C4327"/>
<path d="M19.0547 36.4375V37.4922H29.6016V36.4375C29.6016 33.5297 27.2359 31.1641 24.3281 31.1641C21.4204 31.1641 19.0547 33.5297 19.0547 36.4375ZM24.3281 33.2734C25.7032 33.2734 26.8762 34.1551 27.3115 35.3828H21.3448C21.7801 34.1551 22.953 33.2734 24.3281 33.2734Z" fill="#6C4327"/>
<path d="M28.5469 29.0547C30.2915 29.0547 31.7109 27.6353 31.7109 25.8906H29.6016C29.6016 26.4722 29.1284 26.9453 28.5469 26.9453C27.9653 26.9453 27.4922 26.4722 27.4922 25.8906H25.3828C25.3828 27.6353 26.8022 29.0547 28.5469 29.0547Z" fill="#6C4327"/>
</g>
<defs>
<clipPath id="clip0_21_72621">
<rect width="48" height="48" fill="white"/>
</clipPath>
</defs>
</svg>
