<svg width="48" height="48" viewBox="0 0 48 48" fill="none" xmlns="http://www.w3.org/2000/svg">
<g clip-path="url(#clip0_21_72629)">
<path d="M39.9019 1.65199C35.4355 1.10222 30.9186 1.10222 26.4522 1.65199L18.3535 2.64885V17.8971C18.3535 26.9329 25.8486 32.5152 33.177 34.0007C41.6714 32.1025 48.0006 26.9329 48.0006 17.8971V2.64885L39.9019 1.65199Z" fill="#E5D4A3"/>
<path d="M20.9225 31.1798L20.9981 31.4381L24.9178 35.3578L33.8676 26.408L29.9478 22.4885L29.6895 22.4126C28.5866 22.0887 25.4455 20.9691 24.1719 19.6956C22.8984 18.4221 21.7789 15.281 21.4551 14.1784L21.3793 13.9197L17.4597 10L8.5099 18.9498L12.4297 22.8694L12.688 22.9452C13.2467 23.1094 14.3286 23.4779 15.4259 23.967L0 39.3928L4.47486 43.8677L19.9007 28.4419C20.3898 29.539 20.7584 30.621 20.9225 31.1798ZM24.9178 32.3745L23.4262 30.8829L29.3927 24.9163L30.8844 26.408L24.9178 32.3745ZM22.6804 21.1873C23.8673 22.3742 25.9747 23.3166 27.4508 23.875L22.3849 28.9409C21.8265 27.4648 20.8841 25.3574 19.6972 24.1705C18.5103 22.9836 16.4028 22.0412 14.9268 21.4827L19.9926 16.4169C20.551 17.8929 21.4935 20.0003 22.6804 21.1873ZM17.4597 12.9833L18.9513 14.4749L12.9848 20.4415L11.4931 18.9499L17.4597 12.9833ZM2.98324 39.3928L12.9848 29.3913L14.4764 30.8829L4.47486 40.8844L2.98324 39.3928ZM15.968 29.3913L14.4764 27.8997L17.373 25.003C17.6945 25.2156 17.9797 25.4363 18.2055 25.6622C18.4313 25.888 18.6521 26.1733 18.8647 26.4947L15.968 29.3913Z" fill="#6C4327"/>
<path d="M33.8914 43.8909V39.6719H21.2345V43.8909H19.125V46.0003H36.0009V43.8909H33.8914ZM23.344 41.7814H31.7819V43.8909H23.344V41.7814Z" fill="#6C4327"/>
</g>
<defs>
<clipPath id="clip0_21_72629">
<rect width="48" height="48" fill="white"/>
</clipPath>
</defs>
</svg>
