<svg width="48" height="48" viewBox="0 0 48 48" fill="none" xmlns="http://www.w3.org/2000/svg">
<g clip-path="url(#clip0_21_72607)">
<path d="M39.9019 3.65199C35.4355 3.10222 30.9186 3.10222 26.4522 3.65199L18.3535 4.64885V19.8971C18.3535 28.9329 25.8486 34.5152 33.177 36.0007C41.6714 34.1025 48.0006 28.9329 48.0006 19.8971V4.64885L39.9019 3.65199Z" fill="#E5D4A3"/>
<path d="M36 13.0547H0V41.6719H12.4947L12.201 43.1403C12.0045 44.1228 11.1347 44.8359 10.1327 44.8359H4.21875V46.9453H31.7812V44.8359H25.8673C24.8653 44.8359 23.9954 44.1228 23.799 43.1402L23.5053 41.6719H36V13.0547ZM33.8906 15.1641V35.3438H2.10938V15.1641H33.8906ZM21.7306 43.5539C21.8228 44.0149 21.9899 44.4457 22.2163 44.8359H13.7837C14.0102 44.4457 14.1772 44.0149 14.2694 43.5539L14.6459 41.6719H21.3541L21.7306 43.5539ZM2.10938 39.5625V37.4531H33.8906V39.5625H2.10938Z" fill="#6C4327"/>
</g>
<defs>
<clipPath id="clip0_21_72607">
<rect width="48" height="48" fill="white"/>
</clipPath>
</defs>
</svg>
